<svg version="1.1" id="Layer_1" xmlns="http://www.w3.org/2000/svg" xmlns:xlink="http://www.w3.org/1999/xlink" x="0px" y="0px"
	 width="100%" viewBox="0 0 496 496" enable-background="new 0 0 496 496" xml:space="preserve">
<style>
path{
	fill:#000;
} 
@media (prefers-color-scheme: dark) {
	path{
		fill: #fff;
	}
}
</style>
<path fill="#000000" opacity="1.000000" stroke="none" 
	d="
M172.096375,430.811523 
	C172.391800,434.797058 171.071594,436.444672 167.263153,436.372681 
	C157.601593,436.190125 147.933060,436.209381 138.270279,436.350433 
	C134.824448,436.400696 133.328766,435.155060 133.631668,431.686279 
	C133.776047,430.032776 133.648590,428.355774 133.648560,426.689423 
	C133.647034,305.877777 133.645889,185.066162 133.644882,64.254524 
	C133.644821,56.669182 133.645432,56.660789 141.228119,56.659748 
	C171.056091,56.655655 200.884659,56.563965 230.711426,56.752586 
	C235.448166,56.782539 237.233932,55.506542 237.004395,50.600494 
	C236.654343,43.118843 237.015961,35.606579 236.910385,28.109636 
	C236.859924,24.526169 238.297256,22.938715 241.935974,23.011116 
	C247.932404,23.130430 253.938705,23.191921 259.930054,22.976835 
	C263.964111,22.832020 265.601776,24.201939 265.457703,28.429028 
	C265.191101,36.251774 265.667236,44.104240 265.279938,51.916859 
	C265.035767,56.842457 267.324402,58.254471 271.597198,58.646519 
	C290.399963,60.371750 308.752289,64.313789 326.485504,70.788666 
	C387.118988,92.927567 422.358582,136.201721 433.435303,199.573257 
	C437.126221,220.689606 437.327118,241.924820 436.289886,263.233398 
	C436.252014,264.011627 436.376221,264.893188 434.658020,265.664032 
	C434.658020,262.579193 434.622498,259.816864 434.663574,257.055695 
	C435.045563,231.366409 431.741211,206.231201 422.339172,182.210861 
	C405.968536,140.387177 375.538788,113.439034 333.292450,99.348579 
	C308.297607,91.012024 282.505524,87.521263 256.242218,87.353043 
	C230.581131,87.188667 204.918533,87.254333 179.256607,87.230804 
	C172.128754,87.224274 172.084396,87.243484 172.084167,94.394447 
	C172.080627,206.374191 172.089371,318.353943 172.096375,430.811523 
z"/>
<path fill="#000000" opacity="1.000000" stroke="none" 
	d="
M378.270416,203.988464 
	C386.245331,229.922989 386.705994,256.017914 384.495728,282.386169 
	C382.882172,301.635864 378.812042,320.180634 370.315338,337.605072 
	C357.877869,363.111053 337.172607,378.761108 310.546051,387.101898 
	C283.577576,395.549774 255.715530,395.059143 227.910065,394.984222 
	C224.654724,394.975464 223.617203,393.334534 223.678101,390.262726 
	C223.803604,383.933380 223.834534,377.596283 223.659744,371.269165 
	C223.564011,367.803436 224.898331,366.530640 228.340042,366.613342 
	C237.671158,366.837646 236.894547,367.558350 236.898026,357.486084 
	C236.922745,286.002258 236.935440,214.518448 236.946136,143.034622 
	C236.948135,129.689011 236.935989,129.681885 250.517303,129.695679 
	C254.016129,129.699234 257.515167,129.807861 261.013580,129.785721 
	C264.126740,129.766022 265.497894,131.094284 265.409637,134.334991 
	C265.250916,140.162537 265.377167,145.997726 265.377197,151.829712 
	C265.377502,220.314133 265.376434,288.798553 265.376007,357.282990 
	C265.375946,364.786987 265.410248,364.970184 272.713440,363.634033 
	C311.155853,356.600708 335.940002,334.328522 345.326141,296.339630 
	C353.782623,262.113403 354.798615,227.511871 345.650757,193.166565 
	C338.548920,166.502975 322.685547,146.965363 296.744476,136.292999 
	C295.721863,135.872299 294.460510,135.747940 293.530701,133.412354 
	C307.730499,135.988434 320.574402,140.397049 332.600586,147.007965 
	C355.499481,159.595688 369.905029,179.164368 378.270416,203.988464 
z"/>
<path fill="#000000" opacity="1.000000" stroke="none" 
	d="
M265.494080,471.071289 
	C265.268677,483.304962 265.268677,483.305939 253.670120,483.297302 
	C249.508240,483.294189 245.344879,483.214813 241.184982,483.302490 
	C238.231277,483.364746 236.910812,482.019073 236.918350,479.123993 
	C236.951721,466.305695 236.948868,453.487305 236.991272,440.669006 
	C236.997833,438.685211 237.559204,436.883148 239.978439,436.866028 
	C248.248947,436.807495 256.520142,436.843567 265.478943,436.843567 
	C265.478943,448.428955 265.478943,459.535706 265.494080,471.071289 
z"/>
</svg>
